<svg width="269" height="59" viewBox="0 0 269 59" fill="none" xmlns="http://www.w3.org/2000/svg">
<path d="M103.454 35.7155C103.454 36.6765 103.255 37.5495 102.857 38.3347C102.458 39.1081 101.925 39.7761 101.257 40.3386C100.589 40.9011 99.8217 41.3347 98.9545 41.6393C98.0873 41.944 97.1849 42.0964 96.2474 42.0964C94.9584 42.0964 93.7748 41.8561 92.6967 41.3757C91.6185 40.8952 90.7631 40.1862 90.1302 39.2487V41.6921H88.0912V34.7136H90.1302C90.1302 35.4987 90.3119 36.2194 90.6752 36.8757C91.0385 37.5202 91.5013 38.0768 92.0638 38.5456C92.6263 39.0143 93.2709 39.3835 93.9974 39.653C94.7357 39.9108 95.4857 40.0397 96.2474 40.0397C96.9271 40.0397 97.5541 39.946 98.1283 39.7585C98.7025 39.5593 99.2064 39.2839 99.64 38.9323C100.074 38.569 100.413 38.1296 100.66 37.614C100.917 37.0983 101.046 36.5124 101.046 35.8561C101.046 35.1179 100.882 34.485 100.554 33.9577C100.238 33.4304 99.8041 32.9792 99.2533 32.6042C98.7142 32.2292 98.1049 31.9128 97.4252 31.655C96.7455 31.3854 96.0541 31.1218 95.351 30.864C94.5189 30.571 93.6869 30.2663 92.8549 29.9499C92.0228 29.6218 91.2787 29.2116 90.6224 28.7194C89.9662 28.2272 89.433 27.6296 89.0228 26.9265C88.6127 26.2116 88.4076 25.3268 88.4076 24.2722C88.4076 23.3347 88.6068 22.5026 89.0052 21.7761C89.4037 21.0378 89.9252 20.4167 90.5697 19.9128C91.2142 19.4089 91.9642 19.028 92.8197 18.7702C93.6752 18.5007 94.5541 18.3659 95.4564 18.3659C96.5697 18.3659 97.5951 18.5944 98.5326 19.0515C99.4818 19.5085 100.22 20.2057 100.747 21.1432V18.7526H102.874V25.3093H100.747C100.747 24.6179 100.601 23.9733 100.308 23.3757C100.027 22.7663 99.64 22.2507 99.1478 21.8288C98.6556 21.3952 98.0931 21.0554 97.4603 20.8093C96.8275 20.5515 96.1595 20.4225 95.4564 20.4225C94.8353 20.4225 94.2435 20.4929 93.681 20.6335C93.1185 20.7741 92.6263 21.0026 92.2045 21.319C91.7826 21.6237 91.4427 22.0222 91.1849 22.5143C90.9388 23.0065 90.8158 23.5925 90.8158 24.2722C90.8158 24.8698 90.9623 25.3796 91.2552 25.8015C91.5599 26.2233 91.9642 26.5983 92.4681 26.9265C92.972 27.2429 93.5521 27.5358 94.2084 27.8054C94.8763 28.0632 95.556 28.3268 96.2474 28.5964C97.1146 28.9011 97.976 29.2409 98.8314 29.6159C99.6869 29.9909 100.454 30.4421 101.134 30.9694C101.814 31.4968 102.37 32.1472 102.804 32.9206C103.238 33.6823 103.454 34.614 103.454 35.7155ZM107.552 34.3444C107.728 36.0788 108.361 37.4616 109.451 38.4929C110.541 39.5241 111.959 40.0397 113.705 40.0397C114.935 40.0397 116.031 39.7878 116.992 39.2839C117.953 38.78 118.673 38.153 119.154 37.403L120.841 38.5632C120.021 39.7116 119.043 40.5905 117.906 41.1999C116.769 41.7975 115.369 42.0964 113.705 42.0964C112.439 42.0964 111.279 41.8854 110.224 41.4636C109.169 41.0417 108.255 40.4557 107.482 39.7057C106.72 38.944 106.128 38.0417 105.707 36.9987C105.285 35.9557 105.074 34.7956 105.074 33.5182C105.074 32.2761 105.261 31.1335 105.636 30.0905C106.023 29.0358 106.574 28.1276 107.289 27.3659C108.015 26.5925 108.894 25.9948 109.925 25.5729C110.957 25.1393 112.111 24.9225 113.388 24.9225C114.783 24.9225 116.001 25.1569 117.044 25.6257C118.087 26.0944 118.955 26.7448 119.646 27.5768C120.349 28.3972 120.865 29.3815 121.193 30.53C121.533 31.6784 121.703 32.9499 121.703 34.3444H107.552ZM119.154 32.2878C118.884 30.4948 118.234 29.1589 117.203 28.28C116.171 27.4011 114.9 26.9616 113.388 26.9616C112.615 26.9616 111.9 27.0905 111.244 27.3483C110.587 27.5944 110.007 27.9518 109.503 28.4206C109 28.8893 108.578 29.4577 108.238 30.1257C107.898 30.7819 107.681 31.5026 107.587 32.2878H119.154ZM139.634 30.2487C139.634 31.7136 139.494 33.1257 139.213 34.485C138.943 35.8327 138.498 37.0397 137.877 38.1061C137.267 39.1725 136.47 40.0573 135.486 40.7604C134.502 41.4518 133.312 41.8679 131.918 42.0085C132.187 43.5788 132.726 44.6628 133.535 45.2604C134.355 45.8581 135.556 46.1569 137.138 46.1569C137.549 46.1569 137.894 46.1511 138.175 46.1393C138.468 46.1276 138.75 46.11 139.019 46.0866V48.1432C138.679 48.1667 138.351 48.1843 138.035 48.196C137.73 48.2077 137.431 48.2136 137.138 48.2136C134.748 48.2136 132.943 47.7038 131.724 46.6843C130.517 45.6647 129.779 44.0944 129.509 41.9733C128.22 41.8093 127.101 41.3932 126.152 40.7253C125.203 40.0456 124.424 39.1843 123.814 38.1413C123.216 37.0983 122.777 35.903 122.496 34.5554C122.203 33.196 122.056 31.7604 122.056 30.2487C122.056 28.7136 122.215 27.2311 122.531 25.8015C122.836 24.3718 123.34 23.1061 124.043 22.0046C124.758 20.903 125.672 20.0241 126.785 19.3679C127.91 18.6999 129.263 18.3659 130.845 18.3659C132.427 18.3659 133.775 18.6999 134.888 19.3679C136.013 20.0241 136.922 20.903 137.613 22.0046C138.304 23.1061 138.814 24.3718 139.142 25.8015C139.47 27.2311 139.634 28.7136 139.634 30.2487ZM137.209 30.2487C137.209 29.0886 137.109 27.9284 136.91 26.7682C136.711 25.6081 136.371 24.5534 135.89 23.6042C135.41 22.655 134.754 21.8874 133.922 21.3015C133.09 20.7155 132.064 20.4225 130.845 20.4225C129.591 20.4225 128.554 20.7155 127.734 21.3015C126.925 21.8874 126.275 22.655 125.783 23.6042C125.291 24.5534 124.945 25.6081 124.746 26.7682C124.558 27.9284 124.465 29.0886 124.465 30.2487C124.465 33.2956 125.015 35.6921 126.117 37.4382C127.23 39.1725 128.806 40.0397 130.845 40.0397C132.861 40.0397 134.425 39.1725 135.539 37.4382C136.652 35.6921 137.209 33.2956 137.209 30.2487ZM140.99 25.3093H143.398V35.4343C143.398 36.8991 143.715 38.0358 144.348 38.8444C144.992 39.6413 146.023 40.0397 147.441 40.0397C148.332 40.0397 149.135 39.8347 149.849 39.4245C150.564 39.0143 151.174 38.4694 151.678 37.7897C152.181 37.0983 152.562 36.3132 152.82 35.4343C153.09 34.5436 153.224 33.6179 153.224 32.6569V25.3093H155.65V41.6921H153.224V37.5964C152.076 40.5964 150.014 42.0964 147.037 42.0964C143.006 42.0964 140.99 39.8757 140.99 35.4343V25.3093ZM160.029 34.3444C160.205 36.0788 160.838 37.4616 161.928 38.4929C163.018 39.5241 164.436 40.0397 166.182 40.0397C167.412 40.0397 168.508 39.7878 169.469 39.2839C170.43 38.78 171.15 38.153 171.631 37.403L173.318 38.5632C172.498 39.7116 171.52 40.5905 170.383 41.1999C169.246 41.7975 167.846 42.0964 166.182 42.0964C164.916 42.0964 163.756 41.8854 162.701 41.4636C161.646 41.0417 160.732 40.4557 159.959 39.7057C159.197 38.944 158.605 38.0417 158.184 36.9987C157.762 35.9557 157.551 34.7956 157.551 33.5182C157.551 32.2761 157.738 31.1335 158.113 30.0905C158.5 29.0358 159.051 28.1276 159.766 27.3659C160.492 26.5925 161.371 25.9948 162.402 25.5729C163.434 25.1393 164.588 24.9225 165.865 24.9225C167.26 24.9225 168.479 25.1569 169.521 25.6257C170.564 26.0944 171.432 26.7448 172.123 27.5768C172.826 28.3972 173.342 29.3815 173.67 30.53C174.01 31.6784 174.18 32.9499 174.18 34.3444H160.029ZM171.631 32.2878C171.361 30.4948 170.711 29.1589 169.68 28.28C168.648 27.4011 167.377 26.9616 165.865 26.9616C165.092 26.9616 164.377 27.0905 163.721 27.3483C163.064 27.5944 162.484 27.9518 161.98 28.4206C161.477 28.8893 161.055 29.4577 160.715 30.1257C160.375 30.7819 160.158 31.5026 160.064 32.2878H171.631ZM191.057 37.1569C191.057 38.1179 190.817 38.9147 190.336 39.5475C189.856 40.1804 189.235 40.6843 188.473 41.0593C187.723 41.4343 186.879 41.6979 185.942 41.8503C185.016 42.0143 184.108 42.0964 183.217 42.0964C181.729 42.0964 180.246 41.8796 178.77 41.446C177.293 41.0124 176.016 40.444 174.938 39.7409L176.01 37.6667C177.217 38.4284 178.406 39.0143 179.578 39.4245C180.75 39.8347 181.963 40.0397 183.217 40.0397C186.838 40.0397 188.649 39.1022 188.649 37.2272C188.649 36.7702 188.496 36.4011 188.192 36.1198C187.899 35.8268 187.5 35.5925 186.996 35.4167C186.492 35.2292 185.912 35.0827 185.256 34.9772C184.611 34.8718 183.932 34.7722 183.217 34.6784C182.303 34.5495 181.395 34.3972 180.492 34.2214C179.59 34.0456 178.764 33.7819 178.014 33.4304C177.276 33.0788 176.678 32.61 176.221 32.0241C175.776 31.4382 175.553 30.6647 175.553 29.7038C175.553 28.8835 175.758 28.1745 176.168 27.5768C176.59 26.9792 177.147 26.4811 177.838 26.0827C178.541 25.6843 179.361 25.3913 180.299 25.2038C181.236 25.0163 182.209 24.9225 183.217 24.9225C184.658 24.9225 185.947 25.0925 187.084 25.4323C188.221 25.7604 189.246 26.235 190.16 26.8561L189.194 28.737C188.256 28.0807 187.307 27.6237 186.346 27.3659C185.385 27.0964 184.342 26.9616 183.217 26.9616C182.713 26.9616 182.151 27.0085 181.529 27.1022C180.92 27.1843 180.352 27.3366 179.824 27.5593C179.297 27.7702 178.852 28.0515 178.488 28.403C178.137 28.7429 177.961 29.1765 177.961 29.7038C177.961 30.1608 178.108 30.53 178.401 30.8112C178.705 31.0807 179.11 31.3093 179.613 31.4968C180.117 31.6725 180.692 31.8132 181.336 31.9186C181.992 32.0241 182.678 32.1237 183.393 32.2175C184.283 32.3464 185.18 32.4987 186.082 32.6745C186.996 32.8503 187.822 33.1081 188.561 33.4479C189.311 33.7878 189.914 34.2507 190.371 34.8366C190.828 35.4225 191.057 36.196 191.057 37.1569ZM209.164 36.4714C208.977 38.194 208.297 39.5651 207.125 40.5847C205.965 41.5925 204.512 42.0964 202.766 42.0964C201.805 42.0964 200.926 41.9382 200.129 41.6218C199.332 41.3054 198.653 40.8659 198.09 40.3034C197.528 39.7409 197.088 39.0671 196.772 38.2819C196.467 37.485 196.315 36.6179 196.315 35.6804V27.3659H192.606V25.3093H196.315V18.7526H198.723V25.3093H205.701V27.3659H198.723V35.6804C198.723 36.278 198.817 36.8405 199.004 37.3679C199.203 37.8952 199.473 38.3581 199.813 38.7565C200.164 39.155 200.586 39.4714 201.078 39.7057C201.571 39.9284 202.133 40.0397 202.766 40.0397C203.961 40.0397 204.957 39.6706 205.754 38.9323C206.563 38.1823 207.026 37.2155 207.143 36.0319L209.164 36.4714ZM219.924 22.0397H216.655V18.7526H219.924V22.0397ZM223.194 41.6921H213.368V39.6354H217.077V27.3659H213.368V25.3093H219.502V39.6354H223.194V41.6921ZM244.395 33.5534C244.395 34.8307 244.19 35.9909 243.78 37.0339C243.382 38.0768 242.801 38.9733 242.04 39.7233C241.29 40.4616 240.387 41.0417 239.333 41.4636C238.278 41.8854 237.1 42.0964 235.799 42.0964C234.522 42.0964 233.356 41.8854 232.301 41.4636C231.247 41.0417 230.339 40.4616 229.577 39.7233C228.827 38.9733 228.247 38.0768 227.837 37.0339C227.438 35.9909 227.239 34.8307 227.239 33.5534C227.239 32.3112 227.438 31.1569 227.837 30.0905C228.247 29.0124 228.827 28.0983 229.577 27.3483C230.339 26.5866 231.247 25.9948 232.301 25.5729C233.356 25.1393 234.522 24.9225 235.799 24.9225C237.1 24.9225 238.278 25.1393 239.333 25.5729C240.387 25.9948 241.29 26.5866 242.04 27.3483C242.801 28.0983 243.382 29.0124 243.78 30.0905C244.19 31.1569 244.395 32.3112 244.395 33.5534ZM241.987 33.5534C241.987 32.6159 241.846 31.7546 241.565 30.9694C241.296 30.1725 240.891 29.4753 240.352 28.8776C239.813 28.28 239.157 27.8112 238.383 27.4714C237.622 27.1315 236.76 26.9616 235.799 26.9616C234.839 26.9616 233.971 27.1315 233.198 27.4714C232.436 27.8112 231.792 28.28 231.264 28.8776C230.737 29.4753 230.333 30.1725 230.051 30.9694C229.782 31.7546 229.647 32.6159 229.647 33.5534C229.647 34.4909 229.782 35.3581 230.051 36.155C230.333 36.9401 230.737 37.6198 231.264 38.194C231.792 38.7682 232.436 39.2194 233.198 39.5475C233.971 39.8757 234.839 40.0397 235.799 40.0397C236.76 40.0397 237.622 39.8757 238.383 39.5475C239.157 39.2194 239.813 38.7682 240.352 38.194C240.891 37.6198 241.296 36.9401 241.565 36.155C241.846 35.3581 241.987 34.4909 241.987 33.5534ZM260.604 41.6921H258.179V31.5847C258.179 30.1198 257.862 28.9831 257.229 28.1745C256.596 27.3659 255.571 26.9616 254.153 26.9616C253.263 26.9616 252.454 27.1667 251.727 27.5768C251.013 27.987 250.403 28.5378 249.899 29.2292C249.395 29.9089 249.009 30.694 248.739 31.5847C248.481 32.4636 248.352 33.3835 248.352 34.3444V41.6921H245.944V25.3093H248.352V29.4225C249.513 26.4225 251.581 24.9225 254.557 24.9225C258.589 24.9225 260.604 27.1432 260.604 31.5847V41.6921Z" fill="white"/>
<rect width="70.6037" height="59" rx="7.88976" fill="url(#paint0_linear)"/>
<g filter="url(#filter0_di)">
<path d="M53.8609 43.6295H47.2134C46.9835 43.6295 46.7941 43.4512 46.7694 43.2227C46.7585 43.1227 46.7465 43.027 46.7331 42.9353C46.3173 40.0854 42.9936 38.3072 40.1143 38.2384C39.7645 38.23 39.4197 38.2622 39.0716 38.3366C37.1186 38.7539 35.3698 39.9292 33.388 40.1758C31.1755 40.4512 29.4107 40.3337 27.1565 39.8863C26.3947 39.7351 25.6474 39.505 24.9341 39.1978C21.2411 37.6075 19.4992 36.0452 17.8204 33.4827C17.1536 32.4649 16.6512 31.3364 16.4323 30.1394C16.1647 28.6758 16.1902 27.4522 16.4154 26.0326C16.6503 24.5517 17.2111 23.1322 18.0607 21.8967C19.9882 19.0936 22.0192 17.6405 26.0148 16.0934C30.4107 15.0567 32.6547 15.1216 36.3649 16.0934C38.4054 16.6278 40.6517 17.8766 42.4098 19.482C45.0717 21.9127 45.4048 25.7624 45.4839 29.3663L45.5033 30.2478C45.5093 30.5235 45.2618 30.7359 44.9895 30.6923C42.4709 30.2882 40.8004 30.2654 38.2969 30.6352C37.9321 30.6891 37.6508 30.2943 37.7845 29.9507C38.0305 29.3183 38.1327 28.7242 38.1371 28.1436C38.1571 25.5612 36.3766 23.0848 33.9025 22.3446C31.2428 21.5488 28.4104 22.237 26.4391 24.0759C25.1356 25.1028 24.6376 26.937 24.7751 28.6665C24.9605 30.9989 27.0226 32.6369 29.2598 33.3219C31.3827 33.972 33.0799 33.8116 35.0644 32.8813C36.2492 32.3258 37.5058 31.8858 38.8142 31.9067C47.0497 32.0387 52.8867 34.6003 54.2885 43.1267C54.3317 43.3894 54.1272 43.6295 53.8609 43.6295Z" fill="#FAFAFA"/>
</g>
<defs>
<filter id="filter0_di" x="14.6066" y="15.34" width="41.32" height="31.5542" filterUnits="userSpaceOnUse" color-interpolation-filters="sRGB">
<feFlood flood-opacity="0" result="BackgroundImageFix"/>
<feColorMatrix in="SourceAlpha" type="matrix" values="0 0 0 0 0 0 0 0 0 0 0 0 0 0 0 0 0 0 127 0" result="hardAlpha"/>
<feOffset dy="1.63237"/>
<feGaussianBlur stdDeviation="0.816183"/>
<feColorMatrix type="matrix" values="0 0 0 0 0 0 0 0 0 0 0 0 0 0 0 0 0 0 0.07 0"/>
<feBlend mode="normal" in2="BackgroundImageFix" result="effect1_dropShadow"/>
<feBlend mode="normal" in="SourceGraphic" in2="effect1_dropShadow" result="shape"/>
<feColorMatrix in="SourceAlpha" type="matrix" values="0 0 0 0 0 0 0 0 0 0 0 0 0 0 0 0 0 0 127 0" result="hardAlpha"/>
<feOffset dy="1.63237"/>
<feGaussianBlur stdDeviation="1.02023"/>
<feComposite in2="hardAlpha" operator="arithmetic" k2="-1" k3="1"/>
<feColorMatrix type="matrix" values="0 0 0 0 0.219608 0 0 0 0 0.533333 0 0 0 0 1 0 0 0 0.13 0"/>
<feBlend mode="normal" in2="shape" result="effect2_innerShadow"/>
</filter>
<linearGradient id="paint0_linear" x1="84.5063" y1="-89.2533" x2="46.6928" y2="68.9442" gradientUnits="userSpaceOnUse">
<stop stop-color="#5498FF"/>
<stop offset="0.25" stop-color="#DDB115"/>
<stop offset="0.734375" stop-color="#DDB115"/>
<stop offset="1" stop-color="#297FFF"/>
</linearGradient>
</defs>
</svg>
